<svg width="307" height="68" viewBox="0 0 307 68" fill="none" xmlns="http://www.w3.org/2000/svg">
<path d="M26.9334 2.18427C25.1845 3.17533 20.2875 6.00275 16.0318 8.45124C11.7761 10.8997 6.44187 13.9895 4.13912 15.272L0 17.6331V35.0349V52.4367L2.56509 53.8941C6.20868 55.9928 7.31633 56.6049 8.21994 57.0713C8.65717 57.3045 9.0944 57.596 9.18184 57.7709C9.29844 57.9166 9.56078 58.0332 9.79397 58.0332C10.1438 58.0332 10.202 55.6139 10.202 40.8938C10.202 22.0054 10.0855 23.2879 11.951 22.5009C12.3591 22.326 12.8837 22.0637 13.1169 21.8888C13.7582 21.4807 21.9781 16.7586 24.1934 15.5344C25.2428 14.9806 26.6128 14.1935 27.254 13.8438C27.8953 13.494 28.9155 12.9401 29.4985 12.6195L30.6061 12.0657L39.5548 17.1376C44.5101 19.9358 51.1268 23.7252 54.2749 25.5615C57.4521 27.3979 60.1046 28.8845 60.1921 28.8845C60.2795 28.8845 60.3087 26.3194 60.2795 23.1713L60.1921 17.4582L46.2007 9.4423C38.5055 5.04085 31.7429 1.19322 31.16 0.90173L30.1106 0.347904L26.9334 2.18427Z" fill="url(#paint0_linear_5417_24)"/>
<path d="M23.6396 23.3463C22.0073 24.3082 20.6081 25.0952 20.5498 25.0952C20.4915 25.0952 19.6462 25.5616 18.6552 26.1446L16.9062 27.1648L16.9645 44.6832L17.052 62.1724L21.8615 64.9124C24.5141 66.4281 26.7585 67.6523 26.9043 67.6523C27.1957 67.6523 27.1666 22.4427 26.8751 21.9763C26.7002 21.714 25.7966 22.0929 23.6396 23.3463Z" fill="url(#paint1_linear_5417_24)"/>
<path d="M33.7833 31.566C33.6667 57.1877 33.6667 67.04 33.8416 67.2149C34.0456 67.4189 37.0188 65.8158 42.7902 62.3762L43.5773 61.9098V44.4789V27.048L40.3709 25.2408C38.622 24.2497 36.4067 23.0255 35.5031 22.5008L33.8124 21.5389L33.7833 31.566Z" fill="url(#paint2_linear_5417_24)"/>
<path d="M50.4272 44.6248V58.0332L51.5349 57.4211C52.1179 57.0713 52.7591 56.7215 52.9049 56.5758C53.0798 56.4592 54.1291 55.8762 55.2368 55.2641C58.8221 53.3111 60.2504 52.2909 60.3961 51.5622C60.5127 50.9501 60.5127 40.0193 60.3961 37.7165C60.3378 36.9295 60.1338 36.6672 58.9678 35.9968C58.1808 35.5595 56.0529 34.3061 54.1874 33.1985C52.3219 32.12 50.7187 31.2164 50.6021 31.2164C50.5147 31.2164 50.4272 37.2502 50.4272 44.6248Z" fill="url(#paint3_linear_5417_24)"/>
<path d="M77.2809 29.5419C77.7035 30.5984 77.6734 50.3403 77.2809 51.1252C76.9791 51.6987 77.1602 51.6987 87.4236 51.6987C99.7698 51.6987 99.7397 51.6987 100.645 48.8612C100.766 48.5292 100.766 46.8991 100.645 45.2388C100.434 42.3107 100.404 42.1598 99.4076 41.1637C98.4718 40.2279 98.4416 40.1373 98.9246 39.7449C99.2265 39.5336 99.5585 39.3223 99.6491 39.3223C100.192 39.2921 100.525 37.4205 100.525 34.3113V30.8097L99.4982 29.7834L98.4718 28.757H87.7254H76.9791L77.2809 29.5419ZM93.2194 32.2586C93.8231 32.6813 93.8835 32.9831 93.8835 35.2169C93.8835 38.7487 93.8835 38.7487 88.5707 38.6582L84.3747 38.5676L84.2842 35.5792C84.254 33.9189 84.2842 32.3794 84.3446 32.1681C84.5861 31.5644 92.3138 31.6247 93.2194 32.2586ZM93.2194 42.2202C93.8231 42.6428 93.8835 42.9447 93.8835 45.2086C93.8835 48.6197 93.8231 48.6801 88.5405 48.6801H84.5559L84.4653 45.5105C84.4049 43.7597 84.4351 42.19 84.4653 42.0391C84.5257 41.8579 86.2161 41.7372 88.5707 41.7372C91.6799 41.7372 92.676 41.8278 93.2194 42.2202Z" fill="black"/>
<path d="M156.249 35.0358C156.158 35.1867 155.977 35.8206 155.826 36.4847L155.555 37.662L158.664 37.5715L161.743 37.4507L161.954 39.9864C162.196 43.1258 162.045 50.4611 161.682 51.1554C161.471 51.6685 161.713 51.6987 164.792 51.6987C168.022 51.6987 168.142 51.6685 167.84 51.1252C167.659 50.7629 167.539 47.9254 167.539 44.0012V37.4507L170.708 37.5715C173.274 37.6318 173.848 37.5715 173.727 37.2696C173.636 37.0281 173.485 36.4848 173.365 36.0621C173.274 35.6093 173.032 35.1565 172.851 35.0358C172.399 34.7037 156.43 34.7339 156.249 35.0358Z" fill="black"/>
<path d="M208.109 35.0056L205.332 35.1264L205.573 36.1829C205.724 36.7564 205.785 40.4996 205.785 44.4842L205.724 51.6987H208.924H212.124L212.003 49.0423L211.852 46.4161L213.452 45.1181C214.72 44.0616 215.112 43.9106 215.414 44.2125C215.626 44.4238 216.742 46.084 217.89 47.9254C219.52 50.4913 220.154 51.2761 220.848 51.4572C221.663 51.6987 227.006 51.6987 227.006 51.4572C227.006 51.3969 226.613 50.7931 226.13 50.0988C225.678 49.4046 224.048 46.8085 222.508 44.3332L219.731 39.8656L221.482 38.2959C222.418 37.4507 223.625 36.3942 224.138 35.9414L225.044 35.1264L223.202 35.0962C221.482 35.0962 221.27 35.1867 220.033 36.2433C216.863 39.0204 212.396 42.6428 212.184 42.6428C212.033 42.6428 211.913 40.9523 211.913 38.8997C211.913 35.7603 211.822 35.1264 211.43 34.9754C211.158 34.8849 210.947 34.8245 210.916 34.8547C210.886 34.8849 209.618 34.9754 208.109 35.0056Z" fill="black"/>
<path d="M234.311 35.1564C234.13 35.3677 233.919 36.0318 233.798 36.6054L233.617 37.6619L239.654 37.5713C243.578 37.511 245.933 37.6015 246.325 37.8128C246.778 38.0543 246.929 38.4467 246.929 39.3825C246.929 40.5598 246.899 40.59 246.386 40.1372C245.903 39.7146 245.057 39.624 240.771 39.624H235.7L234.673 40.6503L233.647 41.6767V45.7519V49.827L234.583 50.6119C235.488 51.3967 235.549 51.3967 240.892 51.3967C245.389 51.3967 246.325 51.3062 246.657 50.9137C246.989 50.4911 247.05 50.4911 247.291 50.9137C247.503 51.3062 248.136 51.3967 250.491 51.3967H253.419L253.359 48.4686C253.298 46.8386 253.238 43.6086 253.208 41.2843C253.117 36.5752 252.815 35.7299 251.095 35.1262C249.706 34.6432 234.734 34.6734 234.311 35.1564ZM246.325 42.5823C246.899 43.0351 247.05 43.5181 247.17 45.4198C247.291 47.4423 247.231 47.7744 246.657 48.3479C246.114 48.8913 245.661 48.9818 243.488 48.9818C239.896 48.9818 239.624 48.7101 239.745 45.3594C239.835 42.9747 239.896 42.7936 240.59 42.4313C241.797 41.8276 245.51 41.9182 246.325 42.5823Z" fill="black"/>
<path d="M268.09 35.0961C267.969 35.1867 266.037 38.7185 263.833 42.9446C261.63 47.1707 259.698 50.7931 259.547 50.9742C259.366 51.2157 259.547 51.3666 260.12 51.4572C261.871 51.6987 262.203 51.3968 264.075 47.7745C267.456 41.2844 268.331 39.775 268.663 39.6845C268.965 39.5637 274.399 50.3403 274.399 51.0648C274.399 51.4874 275.033 51.5478 278.444 51.4572L281.492 51.3666L280.225 48.7404C279.53 47.2915 278.021 44.0615 276.844 41.5862C275.666 39.0807 274.429 36.5753 274.127 36.0319L273.553 34.9754H270.927C269.478 34.9452 268.21 35.0056 268.09 35.0961Z" fill="black"/>
<path d="M287.077 35.3979C287.288 35.8205 287.379 38.5977 287.318 43.6992L287.228 51.3967H290.156C292.51 51.3967 293.144 51.3062 293.356 50.9137C293.597 50.4911 293.658 50.4911 293.99 50.9137C294.322 51.3062 295.257 51.3967 299.816 51.3967H305.249L306.125 50.4609C307 49.5252 307 49.495 307 45.7519C307 39.7146 306.909 39.6542 299.785 39.624C295.197 39.624 294.442 39.6844 293.929 40.1372C293.356 40.6805 293.356 40.6202 293.446 37.7223L293.567 34.7942H290.156C286.835 34.7942 286.775 34.7942 287.077 35.3979ZM300.359 42.6427C300.872 43.1558 300.963 43.6388 300.963 45.5707C300.963 48.7705 300.751 48.9818 297.25 48.9818C293.597 48.9818 293.416 48.8007 293.416 45.4802C293.416 42.2804 293.688 42.0389 297.25 42.0389C299.363 42.0389 299.846 42.1295 300.359 42.6427Z" fill="black"/>
<path d="M106.683 35.4282C105.234 36.1527 105.052 37.0583 105.052 43.2465C105.052 47.8952 105.143 49.1933 105.535 49.9177C106.381 51.5478 107.196 51.6987 116.04 51.6987H124.01L124.342 50.7629C125.036 48.7405 125.338 48.831 118.455 48.9216C114.048 48.9819 112.116 48.8914 111.814 48.6499C111.543 48.4386 111.392 47.6839 111.392 46.5368V44.7558L114.501 44.6955C117.701 44.6653 122.289 44.5445 124.01 44.4842L124.976 44.454V40.9523C124.976 34.9754 125.217 35.0962 115.165 35.1264C110.516 35.1264 107.045 35.2471 106.683 35.4282ZM118.153 37.9639C118.727 38.5374 119.059 40.2581 118.818 41.2844C118.636 42.0391 118.606 42.0391 115.014 42.0391H111.392V40.2581C111.392 37.7224 111.694 37.5111 115.014 37.5111C117.006 37.5111 117.791 37.6318 118.153 37.9639Z" fill="black"/>
<path d="M130.62 46.4762L130.711 57.8867H131.918C135.601 57.8263 137.382 57.7056 137.261 57.4943C137.141 57.3132 136.929 51.6381 137.02 50.974C137.02 50.8533 137.382 50.9438 137.805 51.2155C138.409 51.6079 139.405 51.6985 143.087 51.6985C150.544 51.6985 150.634 51.6079 150.634 43.5481C150.634 35.0356 150.664 35.0959 143.118 35.0959C138.68 35.0959 137.775 35.1865 137.292 35.5789C136.809 36.0619 136.748 36.0619 136.567 35.5789C136.416 35.1865 135.873 35.0959 133.458 35.0959H130.56L130.62 46.4762ZM143.631 37.9938C144.265 38.4466 144.295 38.6278 144.295 43.367C144.295 46.7781 144.174 48.378 143.933 48.6195C143.691 48.861 142.514 48.9817 140.642 48.9817C136.688 48.9817 136.748 49.0723 136.748 43.1859C136.748 37.541 136.778 37.5109 140.461 37.5109C142.242 37.5109 143.148 37.6618 143.631 37.9938Z" fill="black"/>
<path d="M179.673 37.2696C179.824 38.4771 179.915 42.2202 179.855 45.6011L179.764 51.6987H182.541C185.439 51.6987 185.53 51.6685 186.103 50.1592C186.465 49.2234 192.563 41.5561 193.137 41.3146C193.469 41.1637 193.529 42.1296 193.438 46.4161L193.348 51.6987H196.759C200.14 51.6987 200.14 51.6987 199.989 51.0044C199.898 50.6422 199.778 46.8991 199.747 42.7032L199.687 35.066L196.668 35.1565C193.68 35.2471 193.65 35.2471 193.499 36.032C193.348 36.847 186.647 45.3596 186.194 45.3596C186.043 45.3596 185.952 43.0352 186.013 40.2279L186.103 35.0962H182.752H179.432L179.673 37.2696Z" fill="black"/>
<defs>
<linearGradient id="paint0_linear_5417_24" x1="17.4334" y1="54.8104" x2="36.522" y2="5.18565" gradientUnits="userSpaceOnUse">
<stop stop-color="#ECADA8"/>
<stop offset="1" stop-color="#CC2515"/>
</linearGradient>
<linearGradient id="paint1_linear_5417_24" x1="19.8564" y1="65.0961" x2="39.0222" y2="54.4659" gradientUnits="userSpaceOnUse">
<stop stop-color="#ECADA8"/>
<stop offset="1" stop-color="#CC2515"/>
</linearGradient>
<linearGradient id="paint2_linear_5417_24" x1="36.5575" y1="64.6794" x2="55.3767" y2="54.5627" gradientUnits="userSpaceOnUse">
<stop stop-color="#ECADA8"/>
<stop offset="1" stop-color="#CC2515"/>
</linearGradient>
<linearGradient id="paint3_linear_5417_24" x1="53.3351" y1="56.535" x2="66.5446" y2="44.2136" gradientUnits="userSpaceOnUse">
<stop stop-color="#ECADA8"/>
<stop offset="1" stop-color="#CC2515"/>
</linearGradient>
</defs>
</svg>
